<?xml version="1.0" encoding="UTF-8"?>
<svg version="1.1" xmlns="http://www.w3.org/2000/svg" width="512" height="512">
<path d="M0 0 C1.97664232 0.68448435 3.95336802 1.36872796 5.93017578 2.05273438 C8.86754821 3.07025435 11.80432948 4.08935826 14.73959351 5.11294556 C19.56469147 6.7954408 24.3944536 8.45790806 29.24526978 10.06480408 C32.0852077 11.00752138 34.91675203 11.97489688 37.75 12.9375 C38.7208252 13.24953369 39.69165039 13.56156738 40.69189453 13.88305664 C46.65837587 15.95591614 50.48034731 18.51611859 53.875 23.9375 C55.5468749 28.9531247 55.44946649 33.14410685 53.265625 37.9453125 C52.56652267 39.32511972 51.85264133 40.69752743 51.125 42.0625 C50.77695312 42.75214844 50.42890625 43.44179687 50.0703125 44.15234375 C45.06870168 53.84064916 45.06870168 53.84064916 40.875 55.9375 C36.82236402 56.47785146 35.33769769 56.27949395 32 53.8125 C29.53300605 50.47480231 29.33464854 48.99013598 29.875 44.9375 C30.205 44.2775 30.535 43.6175 30.875 42.9375 C25.265 42.9375 19.655 42.9375 13.875 42.9375 C13.545 44.9175 13.215 46.8975 12.875 48.9375 C12.27467054 50.82950435 11.62311943 52.7058029 10.92895508 54.56542969 C10.52796097 55.64806091 10.12696686 56.73069214 9.71382141 57.84613037 C9.27845566 59.0055011 8.8430899 60.16487183 8.39453125 61.359375 C7.70568346 63.21577826 7.016839 65.07218277 6.32817364 66.92865372 C5.36244254 69.52809033 4.39189586 72.12571753 3.42126465 74.72332764 C1.2805613 80.45365324 -0.85203249 86.18698282 -2.98046875 91.921875 C-3.43267792 93.14015991 -3.88488708 94.35844482 -4.35079956 95.61364746 C-7.81402403 104.99052791 -11.07433057 114.41883622 -14.125 123.9375 C-13.79927002 123.33091553 -13.47354004 122.72433105 -13.13793945 122.09936523 C-6.90198732 110.5009076 -0.62102623 98.92775711 5.8125 87.4375 C6.33094482 86.50220459 6.84938965 85.56690918 7.38354492 84.60327148 C15.73917842 69.76567571 15.73917842 69.76567571 20.9375 67.75 C24.41035525 67.97167161 26.1359062 68.82448479 28.875 70.9375 C30.42089878 74.02929755 30.12056187 76.51371625 29.875 79.9375 C28.46972656 83.28320313 28.46972656 83.28320313 26.515625 86.71875 C26.16997498 87.33592896 25.82432495 87.95310791 25.46820068 88.58898926 C24.36756074 90.54665902 23.2468388 92.49191651 22.125 94.4375 C21.38666045 95.74272097 20.64966864 97.04870531 19.9140625 98.35546875 C17.91802008 101.89263172 15.89880703 105.41613744 13.875 108.9375 C12.54056562 111.27020585 11.20777582 113.60384585 9.875 115.9375 C10.69677734 116.06705078 10.69677734 116.06705078 11.53515625 116.19921875 C39.48050628 121.15213445 65.75944678 136.37545554 86.875 154.9375 C87.81988281 155.76121094 88.76476562 156.58492187 89.73828125 157.43359375 C95.20516877 162.29387129 100.25689389 167.26595494 104.875 172.9375 C105.57882812 173.79988281 106.28265625 174.66226563 107.0078125 175.55078125 C109.75293854 178.95021153 112.45027851 182.30041776 114.875 185.9375 C114.96394531 185.29167969 115.05289062 184.64585937 115.14453125 183.98046875 C117.84377064 169.78518823 126.88758797 157.63484515 134.875 145.875 C135.33132813 145.20243164 135.78765625 144.52986328 136.2578125 143.83691406 C138.2969562 140.91098706 139.87572017 138.93701989 142.875 136.9375 C147.23199826 136.23581114 150.83841481 136.43023491 154.8125 138.375 C157.73325467 142.0038164 158.26443448 145.44421199 158.875 149.9375 C159.05933594 151.16210938 159.24367188 152.38671875 159.43359375 153.6484375 C161.74129938 170.35724582 161.60252413 187.30717848 159.875 204.0625 C156.79833678 234.15687455 159.14270901 265.17450349 171.875 292.9375 C176.52592271 279.73701407 180.96318835 266.84158476 182.875 252.9375 C183.04628418 251.72634521 183.21756836 250.51519043 183.39404297 249.26733398 C183.93359669 244.9101514 184.03653269 240.6092216 184.04296875 236.22265625 C184.04629715 235.40864853 184.04962555 234.59464081 184.05305481 233.75596619 C184.05808973 232.03905801 184.0604642 230.32214016 184.06030273 228.60522461 C184.06246789 226.03807445 184.08060133 223.47137006 184.09960938 220.90429688 C184.13130043 211.35315277 183.64082479 202.0739259 182.33642578 192.61010742 C180.91150841 181.26882068 182.12604641 170.12840091 183.25 158.8125 C183.43888794 156.88905762 183.43888794 156.88905762 183.6315918 154.92675781 C183.76090088 153.71084961 183.89020996 152.49494141 184.0234375 151.2421875 C184.13864746 150.14890137 184.25385742 149.05561523 184.37255859 147.92919922 C185.08614435 143.68027799 186.07380474 140.80938896 189 137.625 C191.99906302 135.8646804 194.24877177 135.429586 197.71484375 135.30859375 C204.52127488 137.29021294 207.91594484 143.64066782 211.25 149.375 C211.72042725 150.16543701 212.19085449 150.95587402 212.67553711 151.77026367 C214.0877777 154.15229556 215.48311999 156.54352666 216.875 158.9375 C217.28669434 159.63842773 217.69838867 160.33935547 218.12255859 161.06152344 C230.2632608 181.73667838 230.17166052 202.66120605 230.25 226.1875 C230.25767395 227.15420624 230.2653479 228.12091248 230.27325439 229.11691284 C230.44129106 255.66136669 225.5098999 279.97354196 216.77032471 304.93215942 C216.21111948 306.5304536 215.6549672 308.12981894 215.10174561 309.73019409 C212.0495641 318.54854888 208.84271243 327.18450968 204.94921875 335.66796875 C194.74421382 358.52108803 193.45687129 379.97076292 193.95605469 404.65454102 C193.97650345 405.92050613 193.99695221 407.18647125 194.01802063 408.49079895 C194.06444612 410.8701964 194.13565088 413.24929654 194.23674011 415.6269989 C194.41146544 423.19406384 193.10440342 428.59483919 188.875 434.9375 C183.93652521 440.00593465 178.38185049 442.09645759 171.4375 442.375 C164.97305848 442.15391787 160.63918757 440.505026 155.8984375 436.1015625 C150.78923735 430.61390308 148.59973855 425.70618872 148.68310547 418.09765625 C148.68905731 416.96787354 148.69500916 415.83809082 148.70114136 414.67407227 C148.71468658 413.46162842 148.72823181 412.24918457 148.7421875 411 C148.74137961 408.38541549 148.73871238 405.77083103 148.734375 403.15625 C148.73379085 399.07123595 148.74590613 394.98707507 148.79589844 390.90234375 C148.97501138 373.0259983 147.56290114 358.23745254 139.875 341.9375 C139.62443848 342.60056152 139.37387695 343.26362305 139.11572266 343.94677734 C129.43955161 369.35056609 117.83382042 391.22274575 98.875 410.9375 C98.38338379 411.46021484 97.89176758 411.98292969 97.38525391 412.52148438 C71.85805332 439.58386565 71.85805332 439.58386565 58.1875 441.4375 C54.875 440.9375 54.875 440.9375 52.4375 439.4375 C50.68032134 436.62601414 49.99453702 434.35059903 50.1796875 431.01171875 C51.67449855 426.55247906 56.11472645 424.40791228 59.875 421.9375 C68.17468104 416.15736499 75.57157557 409.89889078 82.875 402.9375 C84.03128906 401.87789063 84.03128906 401.87789063 85.2109375 400.796875 C96.88249604 389.75735032 105.58406005 376.14732015 112.875 361.9375 C113.19307617 361.32583984 113.51115234 360.71417969 113.83886719 360.08398438 C118.75562421 350.51762954 122.3590061 340.63208899 125.22167969 330.26904297 C125.64194554 328.76921529 126.08368654 327.2751536 126.55175781 325.78955078 C130.26692316 313.8576123 127.70686078 305.95199889 123.08203125 294.59765625 C115.4607021 275.72718055 113.06926048 253.87757545 112.68359375 233.671875 C112.64733887 231.87302856 112.64733887 231.87302856 112.61035156 230.0378418 C112.57944839 227.75305646 112.5755684 225.46767258 112.60449219 223.18286133 C112.52677785 215.02222907 110.32702088 209.71897993 105.875 202.9375 C105.46161377 202.28483154 105.04822754 201.63216309 104.62231445 200.9597168 C98.88921857 192.17802095 92.14013941 184.45917682 84.875 176.9375 C84.02421875 176.02355469 83.1734375 175.10960937 82.296875 174.16796875 C60.61026686 151.47494616 32.0434404 138.22756015 1.875 130.9375 C1.4625 131.50597656 1.05 132.07445312 0.625 132.66015625 C-3.71023637 138.45659953 -8.51425857 144.63212929 -15.125 147.9375 C-14.45146484 148.05754395 -13.77792969 148.17758789 -13.08398438 148.30126953 C0.39054046 150.7422068 13.36370727 153.26065625 25.875 158.9375 C26.53790039 159.23527344 27.20080078 159.53304687 27.88378906 159.83984375 C42.87707756 166.68661311 55.59280412 176.01439957 67.875 186.9375 C68.85726562 187.80955078 68.85726562 187.80955078 69.859375 188.69921875 C95.78288325 213.20310631 109.38448895 249.35286116 111.0390625 284.4140625 C111.93906873 324.58706777 96.58486459 360.1973418 69.4296875 389.3828125 C43.39939123 415.41310877 7.30946131 430.07156717 -29.375 430.1875 C-69.17611105 430.17063941 -103.74972198 415.0199104 -132.125 387.375 C-149.03008318 370.44813702 -160.83260665 348.96148674 -167.125 325.9375 C-167.33382812 325.21675293 -167.54265625 324.49600586 -167.7578125 323.75341797 C-174.03365794 301.43543914 -173.62541188 274.13618546 -167.125 251.9375 C-166.90537598 251.16567383 -166.68575195 250.39384766 -166.45947266 249.59863281 C-158.72400089 223.0035006 -158.72400089 223.0035006 -151.125 217.9375 C-147.43777109 217.4565571 -145.56425206 217.70832501 -142.25 219.4375 C-139.76186488 222.36471779 -139.74787091 224.05518238 -139.85351562 227.81494141 C-140.28855173 231.2162039 -141.72290908 233.86189482 -143.3125 236.875 C-146.05068851 242.3395595 -148.22346332 247.75580346 -149.9375 253.625 C-150.22886841 254.60231079 -150.22886841 254.60231079 -150.52612305 255.59936523 C-153.61038097 266.55613393 -154.48801775 277.33399691 -154.4375 288.6875 C-154.43534485 289.34802368 -154.4331897 290.00854736 -154.43096924 290.68908691 C-154.37810691 300.79648689 -153.89477334 310.16985235 -151.125 319.9375 C-150.93164062 320.63665527 -150.73828125 321.33581055 -150.5390625 322.05615234 C-144.63721833 342.91753207 -133.96772189 360.1984148 -119.125 375.9375 C-118.51269531 376.61425781 -117.90039062 377.29101562 -117.26953125 377.98828125 C-97.15150924 399.39317034 -65.41217327 412.21859485 -36.3828125 413.140625 C-3.36526907 413.64424438 29.12113386 403.65654862 53.32421875 380.48046875 C54.16597656 379.64128906 55.00773437 378.80210937 55.875 377.9375 C56.73222656 377.08671875 57.58945312 376.2359375 58.47265625 375.359375 C79.76752901 353.89137319 92.15448469 325.12844716 93.875 294.9375 C93.95621094 293.52791016 93.95621094 293.52791016 94.0390625 292.08984375 C94.49413798 276.05877558 91.55308654 259.90182171 85.875 244.9375 C85.62766113 244.27943359 85.38032227 243.62136719 85.12548828 242.94335938 C73.06715207 211.60531047 48.26393125 187.64933604 17.875 173.9375 C-14.36496856 160.59609658 -49.02494594 162.10777304 -81.125 174.9375 C-95.37381981 181.13543154 -111.93404018 191.20855436 -121.25 203.8125 C-123.93674784 206.85748089 -126.14682818 207.38878664 -130.125 207.9375 C-135.64772727 205.89204545 -135.64772727 205.89204545 -137.125 202.9375 C-137.53830554 198.84334397 -137.59447209 196.66054812 -135.32421875 193.1640625 C-110.88577482 167.85145961 -80.84499302 153.00546313 -46.125 147.9375 C-46.63289062 147.58558594 -47.14078125 147.23367187 -47.6640625 146.87109375 C-54.00805268 142.32100342 -58.49154085 137.16073839 -63.125 130.9375 C-93.58503808 139.01562231 -119.07202256 151.13740177 -142.125 172.9375 C-143.05828125 173.79472656 -143.9915625 174.65195313 -144.953125 175.53515625 C-168.49709914 197.65234067 -183.09666455 228.48326469 -189.125 259.9375 C-189.46337891 261.64292969 -189.46337891 261.64292969 -189.80859375 263.3828125 C-192.98745835 282.63138574 -192.01581777 302.88138382 -188.125 321.9375 C-187.99109863 322.62279785 -187.85719727 323.3080957 -187.71923828 324.01416016 C-179.8770672 363.05391362 -154.49573748 399.75909675 -121.46875 421.81640625 C-83.65992772 445.80027365 -40.48132011 455.65350314 3.77905273 446.15283203 C9.7265557 444.81785151 15.58307365 443.50246696 21.28125 441.30859375 C25.21158549 439.80908532 27.71411389 439.30944172 31.875 439.9375 C35.25621991 442.38348887 36.64436783 443.83046559 37.5 447.9375 C36.64154508 452.05808363 35.12244205 453.26460539 31.875 455.9375 C28.83300822 457.29967266 25.71209107 458.18889847 22.5 459.0625 C21.15663574 459.44196777 21.15663574 459.44196777 19.78613281 459.82910156 C-26.86315942 472.7548082 -76.14157353 467.49320367 -118.5625 444 C-159.97342544 419.23176327 -190.53928294 380.77259621 -203.125 333.9375 C-213.85896407 288.79839764 -208.19039684 242.67596813 -186.125 201.9375 C-185.78629883 201.3098877 -185.44759766 200.68227539 -185.09863281 200.03564453 C-179.25840473 189.38402247 -172.04649336 180.11844673 -164.125 170.9375 C-163.65352539 170.39013184 -163.18205078 169.84276367 -162.69628906 169.27880859 C-148.87607383 153.36598996 -131.89384159 140.46239257 -113.125 130.9375 C-112.44469727 130.58848633 -111.76439453 130.23947266 -111.06347656 129.87988281 C-98.23774495 123.36798819 -84.94968973 118.82002441 -71.125 114.9375 C-71.40996338 114.4427417 -71.69492676 113.9479834 -71.98852539 113.43823242 C-79.5419576 100.30826036 -86.94577427 87.10003513 -94.2890625 73.8515625 C-98.1354495 66.91309788 -102.00078585 59.98545942 -105.875 53.0625 C-106.45942871 52.01674805 -107.04385742 50.97099609 -107.64599609 49.89355469 C-108.19078613 48.92063477 -108.73557617 47.94771484 -109.296875 46.9453125 C-109.7722168 46.09598145 -110.24755859 45.24665039 -110.73730469 44.37158203 C-111.7175756 42.65214132 -112.72946208 40.95054224 -113.76318359 39.26269531 C-115.9004901 35.61341114 -116.24710191 32.12487743 -116.125 27.9375 C-114.63646833 23.15852989 -112.85738501 20.21369597 -109.125 16.9375 C-106.80444336 15.82023621 -106.80444336 15.82023621 -104.21484375 14.94213867 C-102.75050903 14.43592232 -102.75050903 14.43592232 -101.2565918 13.91947937 C-99.67551636 13.39279411 -99.67551636 13.39279411 -98.0625 12.85546875 C-96.96139893 12.47820145 -95.86029785 12.10093414 -94.72583008 11.7122345 C-91.1958699 10.50544975 -87.66068518 9.31489405 -84.125 8.125 C-81.80691946 7.33637967 -79.48920695 6.54667671 -77.171875 5.75585938 C-73.75342317 4.58981966 -70.33447876 3.42540886 -66.91333008 2.26730347 C-59.01846957 -0.40532479 -51.14625528 -3.13674707 -43.30151367 -5.95332336 C-27.85230049 -11.43846506 -14.84884042 -5.17135865 0 0 Z M-40.30859375 12.328125 C-41.05238281 13.27171875 -41.79617187 14.2153125 -42.5625 15.1875 C-43.30371094 16.12078125 -44.04492188 17.0540625 -44.80859375 18.015625 C-45.57300781 18.97984375 -46.33742187 19.9440625 -47.125 20.9375 C-48.775 22.9175 -50.425 24.8975 -52.125 26.9375 C-37.935 26.9375 -23.745 26.9375 -9.125 26.9375 C-14.2928679 20.03798914 -14.2928679 20.03798914 -19.8125 13.5 C-20.55886719 12.65566406 -21.30523437 11.81132813 -22.07421875 10.94140625 C-24.86619649 8.21324514 -26.68921058 7.96127033 -30.5625 7.75 C-35.28331036 7.9984637 -37.11097577 8.82733394 -40.30859375 12.328125 Z M7.875 20.9375 C9.90084862 24.41618145 9.90084862 24.41618145 12.875 26.9375 C16.92068254 27.47411849 20.81717941 27.28697737 24.875 26.9375 C22.0235357 25.0365238 19.57789524 23.97484101 16.375 22.8125 C15.4159375 22.45929687 14.456875 22.10609375 13.46875 21.7421875 C10.85007162 20.78934564 10.85007162 20.78934564 7.875 20.9375 Z M-78.75 23.4375 C-79.45640625 23.67597656 -80.1628125 23.91445313 -80.890625 24.16015625 C-82.63632577 24.74992002 -84.38078285 25.34336277 -86.125 25.9375 C-86.125 26.2675 -86.125 26.5975 -86.125 26.9375 C-78.36719694 27.96216705 -78.36719694 27.96216705 -71.37109375 25.6015625 C-70.14484604 23.78941377 -70.14484604 23.78941377 -69.125 20.9375 C-72.4933404 20.9375 -75.58882246 22.35850029 -78.75 23.4375 Z M-92.125 42.9375 C-90.56540681 46.83648299 -88.94481963 50.24110038 -86.921875 53.890625 C-86.60771133 54.45915192 -86.29354767 55.02767883 -85.96986389 55.61343384 C-84.94116228 57.47309029 -83.9081928 59.33033558 -82.875 61.1875 C-82.15175333 62.49224855 -81.42869262 63.7971002 -80.70581055 65.10205078 C-78.51714897 69.04995702 -76.32213456 72.99430415 -74.125 76.9375 C-73.49352051 78.0709082 -72.86204102 79.20431641 -72.21142578 80.37207031 C-63.90756368 95.26004644 -55.52673021 110.10458113 -47.125 124.9375 C-45.86836416 121.16759248 -46.57673857 119.97629482 -47.91992188 116.28295898 C-48.54682922 114.53854774 -48.54682922 114.53854774 -49.18640137 112.75889587 C-49.6552717 111.48370473 -50.12439488 110.20860654 -50.59375 108.93359375 C-51.07239811 107.61363685 -51.55029089 106.29340583 -52.02746582 104.97291565 C-53.03426492 102.19254197 -54.0469708 99.41442112 -55.06445312 96.63793945 C-56.34840359 93.13432557 -57.62293901 89.62739495 -58.89361572 86.11894798 C-64.13208718 71.65682742 -69.46956538 57.24289011 -75.125 42.9375 C-80.735 42.9375 -86.345 42.9375 -92.125 42.9375 Z M-58.125 42.9375 C-52.17022621 59.95743209 -52.17022621 59.95743209 -46.06640625 76.921875 C-45.63238998 78.11435852 -45.19837372 79.30684204 -44.75120544 80.53546143 C-43.39779283 84.25322979 -42.0426857 87.97037764 -40.6875 91.6875 C-39.75560527 94.24600125 -38.82408753 96.80463969 -37.89257812 99.36328125 C-35.63801796 105.55516136 -33.38207577 111.74653648 -31.125 117.9375 C-28.1025631 116.42628155 -27.95837118 114.25038008 -26.83422852 111.10766602 C-26.61442322 110.4993544 -26.39461792 109.89104279 -26.16815186 109.26429749 C-25.43966402 107.24246287 -24.72169655 105.21706097 -24.00390625 103.19140625 C-23.49884522 101.78169545 -22.99321668 100.37218786 -22.48704529 98.96287537 C-21.42434139 95.9993577 -20.36644619 93.03418355 -19.31225586 90.06762695 C-17.96960569 86.28956808 -16.61856662 82.51458454 -15.26425266 78.74069309 C-14.21786129 75.82360557 -13.1743986 72.90547767 -12.13194084 69.98698235 C-11.6353236 68.59673154 -11.13820971 67.20665803 -10.64056587 65.81677437 C-9.93942044 63.85608674 -9.24180599 61.89417708 -8.54516602 59.93188477 C-8.14926773 58.82015396 -7.75336945 57.70842316 -7.34547424 56.56300354 C-5.82851108 52.05675905 -4.49126038 47.49170127 -3.125 42.9375 C-21.275 42.9375 -39.425 42.9375 -58.125 42.9375 Z M-46.125 124.9375 C-45.125 126.9375 -45.125 126.9375 -45.125 126.9375 Z M142.875 163.9375 C141.53680416 165.95979596 140.25680542 167.99034769 139 170.0625 C138.47212891 170.91714844 138.47212891 170.91714844 137.93359375 171.7890625 C136.89239007 173.49214658 135.88348293 175.21483849 134.875 176.9375 C134.32972656 177.79859375 133.78445313 178.6596875 133.22265625 179.546875 C131.09719903 184.89440215 130.73495996 190.36276265 130.1875 196.0625 C130.06157471 197.33915527 129.93564941 198.61581055 129.8059082 199.93115234 C128.02624867 219.54957924 127.82344682 239.43610235 130.875 258.9375 C130.99858887 259.72995117 131.12217773 260.52240234 131.24951172 261.33886719 C132.75436354 270.55038437 134.86579435 279.45292892 137.875 288.2890625 C138.32319344 289.61871033 138.32319344 289.61871033 138.78044128 290.97521973 C142.62885111 302.29247015 146.7347714 313.51889926 150.83813477 324.74560547 C152.20555621 328.4869022 153.56893023 332.22964127 154.93164062 335.97265625 C155.80445974 338.36727053 156.67749827 340.76180485 157.55078125 343.15625 C157.95597488 344.26762329 158.36116852 345.37899658 158.77864075 346.52404785 C159.15631088 347.55703003 159.53398102 348.59001221 159.9230957 349.65429688 C160.41771049 351.00823547 160.41771049 351.00823547 160.9223175 352.38952637 C161.55330619 354.07712171 162.23963654 355.74511825 162.98103333 357.38720703 C164.03693538 360.3994665 164.1265737 362.83546219 164.13037109 366.02539062 C164.13733002 367.23014038 164.14428894 368.43489014 164.15145874 369.67614746 C164.15046173 370.9689563 164.14946472 372.26176514 164.1484375 373.59375 C164.15700285 374.94227046 164.16700462 376.2907825 164.17837524 377.63928223 C164.22450535 383.35046369 164.24925664 389.06158765 164.25585938 394.77294922 C164.2608812 398.2737823 164.28515846 401.77405941 164.32118607 405.27470398 C164.33570311 407.24936681 164.3283549 409.22415138 164.32064819 411.19885254 C164.33391144 412.40360229 164.34717468 413.60835205 164.36083984 414.84960938 C164.36368988 415.90708374 164.36653992 416.96455811 164.36947632 418.05407715 C165.00669685 421.68867687 166.23738494 423.38993661 168.875 425.9375 C172.50739813 426.1091367 172.50739813 426.1091367 175.875 424.9375 C178.09489105 421.60766343 178.07580629 420.92114022 177.82885742 417.10473633 C177.77544693 416.10790833 177.72203644 415.11108032 177.66700745 414.08404541 C177.60544968 412.99025574 177.54389191 411.89646606 177.48046875 410.76953125 C175.98197148 371.27205864 184.23680203 340.91444618 199.16650391 304.65966797 C204.29977109 292.09202926 209.06464732 279.13073014 211.25 265.6875 C211.40082031 264.85605469 211.55164063 264.02460938 211.70703125 263.16796875 C213.22387548 254.590416 214.03151989 246.13567003 214.078125 237.42578125 C214.08527527 236.54296982 214.09242554 235.66015839 214.09979248 234.75059509 C214.93361048 197.51469102 214.93361048 197.51469102 200.875 163.9375 C200.215 163.9375 199.555 163.9375 198.875 163.9375 C197.80093132 173.6808373 197.33404847 183.11826045 198.58711243 192.86958313 C199.9622689 203.67506894 200.23356847 214.36799545 200.1875 225.25 C200.18567719 226.148255 200.18385437 227.04651001 200.18197632 227.97198486 C200.0907769 254.69549342 195.00756345 278.4854948 185.68115234 303.49633789 C184.73024928 306.0531053 183.80017179 308.61687204 182.87109375 311.18164062 C182.26683356 312.82075854 181.66141111 314.45944858 181.0546875 316.09765625 C180.77962372 316.85893326 180.50455994 317.62021027 180.22116089 318.40455627 C178.21971839 323.70768774 178.21971839 323.70768774 174.875 325.9375 C171.80545746 326.26404708 169.69370116 326.3431527 166.90209961 324.95996094 C163.83029648 321.89518711 162.79978828 318.31064196 161.37890625 314.265625 C161.06470734 313.39948074 160.75050842 312.53333649 160.42678833 311.64094543 C159.41409935 308.82862668 158.42379354 306.00917583 157.4375 303.1875 C157.09973541 302.23132782 156.76197083 301.27515564 156.41397095 300.29000854 C151.50165076 286.34505015 147.00705046 272.61351777 144.875 257.9375 C144.75382812 257.16180664 144.63265625 256.38611328 144.5078125 255.58691406 C141.68677015 236.89750848 142.17678603 217.76530024 144.15649414 199.02246094 C144.83763593 192.29626292 145.06697814 185.6347574 145.0625 178.875 C145.06314453 177.95235352 145.06378906 177.02970703 145.06445312 176.07910156 C145.03020939 171.91226122 144.93021788 167.99797839 143.875 163.9375 C143.545 163.9375 143.215 163.9375 142.875 163.9375 Z " fill="#000000" transform="translate(282.125,27.0625)"/>
<path d="M0 0 C3.48875299 3.1564908 5.37150659 5.6959226 5.82421875 10.48046875 C5.67834081 14.94126269 4.69144114 17.73787486 1.67578125 21.03515625 C1.04510742 21.72544922 0.41443359 22.41574219 -0.23535156 23.12695312 C-4.20019295 27.29266051 -8.23691753 31.38026224 -12.3125 35.4375 C-13.59543945 36.72624023 -13.59543945 36.72624023 -14.90429688 38.04101562 C-19.89966979 43.02876783 -25.00470988 47.79563917 -30.375 52.375 C-30.96031494 52.89626465 -31.54562988 53.4175293 -32.14868164 53.95458984 C-36.27155907 57.60092464 -40.5955417 60.6342816 -45.25 63.5625 C-46.76180215 64.52721307 -48.27351855 65.49206053 -49.78515625 66.45703125 C-50.54973145 66.94252441 -51.31430664 67.42801758 -52.10205078 67.92822266 C-55.64337906 70.18234847 -59.16486246 72.46682443 -62.6875 74.75 C-63.71351318 75.41249756 -63.71351318 75.41249756 -64.76025391 76.08837891 C-68.75688542 78.67020839 -72.74075946 81.27029835 -76.71484375 83.88671875 C-77.61485107 84.47727051 -78.5148584 85.06782227 -79.44213867 85.67626953 C-81.193406 86.82593215 -82.94237958 87.97909862 -84.6887207 89.13623047 C-85.48753662 89.65975098 -86.28635254 90.18327148 -87.109375 90.72265625 C-87.81288086 91.18679932 -88.51638672 91.65094238 -89.24121094 92.12915039 C-91.375 93.375 -91.375 93.375 -94.08544922 94.41162109 C-96.55607917 95.14098685 -96.55607917 95.14098685 -97.2734375 97.44140625 C-97.43070313 98.26511719 -97.58796875 99.08882813 -97.75 99.9375 C-99.86130503 108.0211154 -104.33726577 113.38847528 -111.375 117.8125 C-119.6821414 122.32209104 -127.95687978 123.911856 -137.24609375 121.6875 C-147.40480436 118.30595971 -154.37535034 112.92847068 -159.375 103.375 C-162.7326391 95.14188494 -162.84363907 84.25291229 -159.8125 75.875 C-155.37203265 66.68569952 -148.69644598 61.34830072 -139.375 57.375 C-136.39698169 56.50701077 -134.40925621 56.37098526 -131.30859375 56.734375 C-118.94010337 58.11632923 -111.52741616 52.13576784 -101.81347656 45.11474609 C-98.24871822 42.57144734 -94.56913035 40.2243776 -90.875 37.875 C-86.30716062 34.93437522 -81.75570109 31.97057432 -77.22265625 28.9765625 C-76.34351562 28.39841797 -75.464375 27.82027344 -74.55859375 27.22460938 C-72.86944545 26.1131951 -71.18302367 24.99762033 -69.5 23.87695312 C-58.67639351 16.77117522 -46.9899997 11.99013117 -35.02514648 7.16186523 C-33.21204781 6.42706339 -31.401814 5.68515386 -29.59448242 4.9362793 C-26.95311101 3.84182272 -24.30404075 2.76837578 -21.65234375 1.69921875 C-20.45665016 1.19777596 -20.45665016 1.19777596 -19.23680115 0.686203 C-12.66345428 -1.91783292 -6.55291748 -3.15510842 0 0 Z M-64.37158203 40.0078125 C-67.43631518 42.09927065 -70.56428549 44.09056272 -73.68481445 46.09741211 C-83.99281743 52.73821083 -94.1898002 59.54796391 -104.375 66.375 C-101.405 71.82 -101.405 71.82 -98.375 77.375 C-94.18925577 75.70070231 -91.22059733 74.08665701 -87.54296875 71.59375 C-86.99363678 71.22384949 -86.44430481 70.85394897 -85.87832642 70.47283936 C-84.70792052 69.68437752 -83.53884303 68.89394072 -82.3710022 68.10168457 C-79.33474142 66.04222661 -76.288913 63.99705864 -73.2421875 61.953125 C-72.34615562 61.35162628 -72.34615562 61.35162628 -71.43202209 60.73797607 C-66.7434782 57.59993117 -61.99493295 54.57658979 -57.1875 51.625 C-48.75065014 46.40193303 -41.77099597 40.94448286 -34.82006836 33.85058594 C-31.30100451 30.26119707 -27.66714738 26.89765683 -23.80078125 23.6796875 C-22.2441099 22.41151075 -22.2441099 22.41151075 -21.375 20.375 C-34.83035536 20.375 -53.57198871 32.55397554 -64.37158203 40.0078125 Z M-142.8125 78.9375 C-145.95310018 83.83683628 -145.98489857 88.72270058 -145.375 94.375 C-143.61115206 99.71693947 -140.23087731 102.68877 -135.375 105.375 C-130.3750025 107.04166583 -126.08845913 106.95123861 -121.25 104.875 C-116.74970038 102.37094223 -114.1781855 99.18900898 -112.375 94.375 C-111.35577344 89.1117809 -111.79228128 84.72619955 -114.375 80 C-117.27906973 75.94742811 -120.63629238 73.82747743 -125.375 72.375 C-132.43706655 71.36613335 -137.98554758 73.86301155 -142.8125 78.9375 Z " fill="#000000" transform="translate(161.375,107.625)"/>
</svg>
