<svg version="1.1" id="Layer_1" xmlns="http://www.w3.org/2000/svg" xmlns:xlink="http://www.w3.org/1999/xlink" x="0px" y="0px"
	 width="100%" viewBox="0 0 1024 1024" enable-background="new 0 0 1024 1024" xml:space="preserve">
<path fill="#000000" opacity="1.000000" stroke="none" 
	d="
M954.931030,624.387329 
	C959.885437,637.753235 951.271912,649.272766 937.108887,648.085388 
	C922.345886,646.847778 907.602417,645.533752 892.800232,644.729553 
	C875.111877,643.768616 857.504700,644.720825 839.884399,645.778320 
	C806.854553,647.760620 774.654724,654.615723 742.562073,662.236816 
	C731.944458,664.758118 720.973267,662.934143 710.170715,663.327820 
	C707.029541,663.442322 703.880676,663.345398 700.357056,664.359497 
	C704.653625,666.554810 708.838623,669.012390 713.267822,670.895752 
	C726.069397,676.339355 737.718750,683.459167 748.670837,692.133057 
	C794.641846,728.541992 846.545044,753.197449 902.922180,768.753357 
	C906.475830,769.733887 909.909119,770.944885 912.798889,773.366760 
	C918.068176,777.782837 920.468384,785.310913 918.479004,791.328308 
	C916.347900,797.774475 910.687561,801.989197 903.324402,802.287292 
	C890.406067,802.810425 877.791931,800.377319 865.237366,797.835938 
	C817.258484,788.123596 774.085510,767.411133 734.394226,739.311768 
	C715.249268,725.758240 695.672241,713.401794 673.240295,705.997498 
	C670.102356,704.961792 668.632690,705.465149 666.622864,707.942871 
	C634.472839,747.577393 593.523132,773.142639 542.973999,780.796448 
	C474.688354,791.135742 415.989594,770.725464 367.644989,721.299438 
	C352.014801,705.319580 339.665680,686.970581 330.751770,666.423279 
	C329.412750,663.336792 327.660950,661.909302 324.342957,662.329224 
	C323.194275,662.474609 322.012665,662.358765 320.846069,662.363281 
	C311.290436,662.400208 311.320129,662.406860 309.234497,671.763672 
	C307.862823,677.917480 303.407227,680.539368 297.640320,680.937683 
	C293.949768,681.192749 293.562988,682.743164 293.605957,686.044617 
	C293.955109,712.866028 294.504089,739.697327 293.390991,766.508911 
	C292.970490,776.638672 285.450073,783.867126 275.247620,784.253235 
	C266.428558,784.586975 257.573669,784.579346 248.756561,784.204956 
	C237.844284,783.741638 230.694931,775.902588 230.676392,764.897339 
	C230.632858,739.065735 230.513351,713.232788 230.759369,687.403503 
	C230.808197,682.276428 229.222061,680.878174 224.243744,680.898743 
	C181.080643,681.076904 137.916595,681.040466 94.752838,681.038147 
	C81.136185,681.037415 71.509270,674.065002 69.864830,662.590942 
	C68.586586,653.672058 68.428787,644.622986 69.391472,635.665039 
	C71.114059,619.635986 78.872116,612.802063 95.125740,612.782471 
	C137.789429,612.731079 180.453217,612.784363 223.116974,612.776306 
	C230.451523,612.774963 230.566284,612.654602 230.596863,605.131165 
	C230.636154,595.465393 230.538559,585.798828 230.621780,576.133606 
	C230.683151,569.008301 232.759903,565.790283 239.404419,564.057678 
	C242.900284,563.145996 243.438736,561.043213 243.585251,558.304749 
	C244.652313,538.359375 245.630615,518.409180 246.720474,498.465118 
	C247.728561,480.017517 248.716537,461.567230 249.960922,443.134827 
	C250.548187,434.436218 251.667404,433.682098 260.401733,433.676483 
	C261.235016,433.675934 262.068298,433.676270 262.901581,433.676605 
	C272.541504,433.680756 273.431854,434.366791 274.064209,443.958862 
	C274.276306,447.176208 275.075745,448.626648 278.640503,448.846191 
	C291.094330,449.613251 303.524567,450.762268 315.964783,451.752930 
	C321.256622,452.174347 323.111084,454.035065 323.311493,459.191071 
	C323.711456,469.480713 322.849487,470.459961 312.566315,471.461243 
	C302.628723,472.428894 292.697845,473.471100 282.752533,474.350922 
	C278.402344,474.735748 275.837830,475.863586 276.219238,481.256165 
	C278.016418,506.663361 279.606873,532.087830 280.399536,557.553284 
	C280.503235,560.884949 281.367493,563.327698 285.357880,564.401367 
	C290.494171,565.783386 293.232025,569.753174 293.341370,575.231262 
	C293.553986,585.886963 293.818207,596.542847 293.885773,607.199707 
	C293.907715,610.655212 294.566040,612.691589 298.678619,613.083923 
	C304.763763,613.664368 308.344025,617.815491 309.078156,623.597595 
	C309.823578,629.468811 313.096924,628.960022 316.524719,628.361877 
	C301.949005,519.560669 344.044800,442.433472 443.344849,395.979492 
	C441.937439,391.341309 438.724243,387.243164 436.200684,382.810699 
	C427.796082,368.048370 428.829163,360.591309 441.084564,349.549744 
	C440.646027,347.447052 438.853363,346.324799 437.481415,344.965363 
	C428.485138,336.050903 419.413696,327.212219 410.377594,318.337860 
	C405.294525,313.345795 405.120148,310.722748 409.520691,304.995972 
	C420.078064,291.256836 430.727722,277.587585 441.169464,263.761261 
	C443.949310,260.080353 447.191742,258.581360 451.795074,258.597137 
	C491.792053,258.734192 531.789612,258.749725 571.786804,258.672119 
	C576.387573,258.663208 579.741821,260.261139 582.461792,263.889740 
	C592.854858,277.754944 603.373108,291.526398 613.765076,305.392487 
	C617.670410,310.603485 617.418396,313.364471 612.712036,318.049164 
	C603.381714,327.336639 593.960083,336.532349 584.608521,345.798645 
	C583.464661,346.932068 581.812561,347.707642 581.518066,349.936554 
	C586.612610,353.413208 590.418945,357.966766 591.409424,364.519104 
	C592.223877,369.907440 590.960327,374.761292 588.375366,379.381165 
	C585.934937,383.742676 583.544739,388.140594 580.896118,392.374634 
	C578.878906,395.599243 579.493530,397.283386 583.072754,398.689758 
	C599.120667,404.995270 614.181274,413.113800 627.916687,423.620056 
	C671.165405,456.701202 697.619751,499.918060 706.367859,553.760864 
	C709.591919,573.604492 709.684875,593.510071 706.632996,613.407959 
	C706.563599,613.860413 706.803284,614.360229 707.030884,615.498657 
	C719.520447,615.659607 732.054565,616.861938 744.562683,614.095947 
	C781.210388,605.991943 818.175659,600.206116 855.838196,601.013306 
	C884.206482,601.621216 912.294006,604.703735 939.410156,613.761047 
	C945.428650,615.771362 951.501038,617.844910 954.931030,624.387329 
M459.043457,652.701599 
	C432.860992,656.701599 407.221710,664.767761 379.738403,662.089478 
	C394.082123,691.094910 436.119904,730.968445 492.729492,737.404907 
	C536.356018,742.365417 575.156555,730.649231 608.912537,702.222961 
	C602.595947,701.559998 596.721497,700.159790 591.031738,697.765015 
	C569.080994,688.526367 547.079651,679.407959 525.104126,670.228271 
	C517.572021,667.081970 517.007324,665.970642 518.578918,657.706177 
	C519.137756,654.767578 519.813232,651.849426 520.304871,648.900146 
	C521.063416,644.349854 523.570129,642.530396 528.258362,642.584106 
	C543.588745,642.759888 558.924133,642.747803 574.254272,642.549133 
	C578.648499,642.492188 581.423828,643.798523 583.177795,648.024109 
	C584.992493,652.395874 588.877441,652.801453 590.847046,648.659729 
	C593.325867,643.447205 597.113525,642.411377 602.199219,642.790894 
	C605.846191,643.063110 609.528503,642.895447 613.194397,642.860901 
	C614.467651,642.848938 615.975708,643.058533 616.375305,640.283875 
	C610.864746,638.186829 605.209290,635.963928 599.500549,633.887573 
	C595.831055,632.552856 593.550903,630.388672 593.736145,626.183044 
	C593.830627,624.037903 594.011719,621.664001 591.460693,620.612915 
	C589.052673,619.620850 587.300110,621.094543 585.653198,622.531555 
	C583.440186,624.462463 581.188721,626.166504 578.041077,624.759338 
	C562.379517,617.757690 546.713623,610.765625 531.077026,603.708679 
	C527.919128,602.283508 526.741394,599.721985 527.603027,596.308899 
	C528.498352,592.762329 529.344177,589.202148 530.308716,585.674377 
	C532.264648,578.520447 533.397217,577.630554 540.737000,577.857239 
	C562.880188,578.541077 585.017761,579.464050 607.165100,579.933777 
	C619.378906,580.192749 630.875610,582.575928 641.677185,588.421936 
	C648.376099,592.047485 655.300537,595.256348 662.381348,598.780518 
	C662.666870,597.884644 662.990356,597.147583 663.127380,596.377441 
	C663.359924,595.069946 663.563416,593.745789 663.626160,592.421326 
	C664.897156,565.613342 659.635803,540.205322 648.055054,515.937378 
	C620.468994,458.129547 554.684631,422.455444 491.450409,431.562195 
	C451.267700,437.349213 417.856537,455.899323 392.554474,487.533020 
	C361.084259,526.878418 351.155518,571.649353 362.461670,620.902954 
	C364.253998,628.710999 364.438202,628.638367 371.885620,628.638489 
	C410.717010,628.639160 449.548615,628.717529 488.379517,628.585327 
	C492.862030,628.570007 495.408661,630.154114 497.291595,634.143005 
	C502.551697,645.286316 508.102264,656.292542 513.545227,667.349487 
	C516.469727,673.290344 516.079041,675.589722 511.635559,678.411804 
	C505.424805,682.356384 502.586365,682.086731 498.323914,676.813782 
	C491.829132,668.779236 485.351685,660.726501 479.081329,652.517700 
	C477.401886,650.319092 475.761322,649.697144 473.164673,650.226562 
	C468.767944,651.123169 464.316559,651.751465 459.043457,652.701599 
M331.493896,535.909241 
	C328.513275,547.018433 326.459198,558.312073 325.690704,569.773987 
	C324.450012,588.278992 325.140839,606.697998 329.482788,624.835754 
	C329.820251,626.245361 330.119934,628.281189 331.830475,628.334045 
	C338.350098,628.535278 344.879608,628.415283 351.435883,628.415283 
	C351.435883,626.882263 351.539520,626.367249 351.420868,625.909851 
	C346.874512,608.384155 345.015564,590.718262 346.493439,572.531128 
	C348.496429,547.881958 354.612030,524.471252 367.313416,503.350769 
	C403.268738,443.562531 456.318237,413.911041 526.155579,419.175903 
	C577.402771,423.039276 617.916443,448.151794 647.037842,490.711578 
	C664.032410,515.548462 673.313904,543.178894 675.487732,573.274414 
	C676.201416,583.155212 675.833740,592.885010 674.376221,602.616150 
	C673.804382,606.434204 674.935181,609.104492 677.955139,611.695251 
	C681.641052,614.857361 685.973022,613.202942 689.872192,614.333740 
	C692.875610,615.204712 694.277832,614.090881 694.790833,610.720154 
	C697.980713,589.761169 697.770081,568.813293 693.221313,548.181580 
	C677.870544,478.556427 636.382385,431.498352 569.608765,406.683533 
	C562.636353,404.092377 561.454773,401.156555 565.207031,394.625732 
	C569.605042,386.970947 574.204651,379.424866 578.369812,371.645813 
	C581.250610,366.265381 578.464233,360.976440 572.849365,360.549164 
	C569.295471,360.278748 566.837830,362.426605 565.006348,365.105743 
	C557.810730,375.631531 548.210327,384.025116 539.964294,393.614655 
	C536.929993,397.143280 533.319153,398.708160 528.530396,398.355255 
	C520.897766,397.792755 513.204590,397.214508 505.578522,397.560272 
	C483.973724,398.539734 489.820343,401.091644 474.209839,384.449249 
	C467.943390,377.768616 461.656158,371.098846 456.189697,363.710724 
	C454.284668,361.136017 451.678833,359.650909 448.362427,360.502228 
	C445.774567,361.166473 444.005859,362.908508 443.323608,365.548523 
	C442.564331,368.486450 443.470551,371.113586 444.939362,373.649048 
	C449.030823,380.711761 453.138794,387.766113 457.121613,394.890106 
	C460.860046,401.576935 459.703094,404.275818 452.585144,406.870758 
	C390.831604,429.383820 350.755188,472.338745 331.493896,535.909241 
M894.450317,632.777710 
	C902.584900,633.355347 910.720154,633.922729 918.853760,634.513916 
	C925.329773,634.984558 931.799500,635.556396 938.280701,635.934998 
	C940.813110,636.082886 943.603394,635.895813 944.410583,632.854309 
	C945.302673,629.493042 942.646362,628.161499 940.222656,626.953369 
	C938.888550,626.288330 937.460876,625.793457 936.044006,625.314697 
	C915.569092,618.395935 894.395630,614.778809 872.938965,613.537598 
	C840.083252,611.637085 807.388672,613.615173 775.012390,619.960510 
	C761.472229,622.614197 748.055481,626.079834 734.274963,627.297424 
	C713.090210,629.169189 692.082214,625.718140 670.990479,624.757263 
	C664.013123,624.439331 656.908752,622.953552 650.107117,624.774292 
	C638.813965,627.797241 631.539001,635.295044 628.177856,646.640747 
	C625.890381,654.362366 624.405090,655.268005 616.406433,655.229492 
	C612.907349,655.212708 609.403137,655.248657 605.911377,655.066223 
	C603.219360,654.925598 601.301086,655.749207 599.394470,657.821960 
	C591.897949,665.971802 580.575745,665.485352 573.910522,656.778320 
	C572.512573,654.952209 571.046997,654.253174 568.890747,654.258362 
	C557.726501,654.285278 546.561951,654.267517 535.397705,654.229492 
	C533.282715,654.222290 531.383606,654.354370 530.724915,656.902710 
	C529.993652,659.732117 532.055908,660.215149 533.929749,661.001709 
	C549.898804,667.703796 566.069397,673.977051 581.751709,681.295715 
	C595.523621,687.722961 609.551331,691.130737 624.739990,689.706116 
	C631.032349,689.115906 637.407043,689.320862 643.676880,688.587952 
	C663.593689,686.259705 679.648376,678.710449 684.992920,657.089478 
	C685.940552,653.256042 688.684265,651.533203 692.831787,651.592041 
	C703.160583,651.738464 713.493713,651.653381 723.824463,651.575806 
	C730.148804,651.528320 736.521545,651.593323 742.699036,650.045105 
	C792.196411,637.639404 842.330627,630.857056 894.450317,632.777710 
M242.277191,591.507690 
	C242.291458,648.481445 242.298706,705.455261 242.329025,762.429016 
	C242.332748,769.437866 244.709442,772.359192 251.113159,772.576599 
	C258.434418,772.825073 265.776123,772.803894 273.098663,772.573242 
	C278.718750,772.396240 281.718689,769.201050 281.722473,763.772949 
	C281.765167,702.801147 281.749969,641.829285 281.840454,580.857605 
	C281.845917,577.174377 280.515533,575.840149 276.878723,575.858154 
	C266.553894,575.909180 256.227081,575.772522 245.903015,575.595581 
	C243.374268,575.552307 242.197098,576.389526 242.262314,579.018494 
	C242.357315,582.847534 242.280075,586.680908 242.277191,591.507690 
M541.956055,747.620483 
	C511.609650,753.348877 481.893524,750.789734 453.128326,739.773987 
	C416.188416,725.627869 387.683655,701.306458 367.843689,666.968323 
	C366.806061,665.172424 366.286804,662.515137 363.651306,662.455078 
	C356.762054,662.297974 349.866821,662.402161 342.644989,662.402161 
	C362.028412,709.496155 421.075470,769.638672 507.015808,771.543762 
	C547.933228,772.450806 585.195129,760.767639 618.603699,737.072998 
	C632.979492,726.877197 645.825378,715.061890 656.680664,701.276917 
	C654.216553,698.456543 651.972107,698.758179 649.615417,699.311584 
	C644.578003,700.494629 639.428833,701.276794 634.290405,701.127075 
	C630.056396,701.003540 627.229492,702.659790 624.253113,705.455994 
	C601.120300,727.189026 573.987671,741.285828 541.956055,747.620483 
M127.500031,624.429016 
	C116.177422,624.426147 104.853912,624.334595 93.532501,624.449768 
	C85.212250,624.534302 81.358932,628.489014 81.289398,636.786804 
	C81.230804,643.779358 81.180801,650.776855 81.373497,657.765320 
	C81.569687,664.880615 85.584213,668.875488 92.680191,668.886963 
	C137.137802,668.958801 181.595596,668.919128 226.053162,669.002075 
	C229.506683,669.008484 230.752808,667.770996 230.702148,664.316833 
	C230.550781,653.995483 230.639587,643.670593 230.642380,633.347046 
	C230.644791,624.462708 230.649536,624.436523 221.911301,624.433350 
	C190.774216,624.422119 159.637146,624.430359 127.500031,624.429016 
M896.502075,779.150085 
	C895.709412,778.894775 894.925232,778.608337 894.122803,778.388489 
	C838.638428,763.185852 788.009521,738.043274 742.733582,702.668213 
	C727.514709,690.777405 710.415039,682.956177 693.441711,674.550598 
	C692.747131,674.206604 691.902039,674.166565 690.898193,673.931213 
	C686.851135,682.188721 680.316345,687.930359 672.002808,692.880249 
	C674.294617,693.809631 675.476929,694.365479 676.707581,694.776672 
	C698.041809,701.906311 717.451538,712.405396 735.761047,725.624695 
	C778.642761,756.584534 825.206909,779.663513 878.066528,788.137939 
	C885.785583,789.375488 893.510986,790.679077 901.363037,790.632629 
	C903.784424,790.618286 906.149902,789.985901 906.684509,787.120483 
	C907.190063,784.410950 905.581238,782.637024 903.351074,781.560730 
	C901.416138,780.626892 899.307678,780.052734 896.502075,779.150085 
M524.250732,364.800079 
	C532.617310,349.321289 540.983826,333.842499 549.714844,317.689331 
	C523.945312,317.689331 499.113129,317.689331 474.098938,317.689331 
	C474.266663,318.568481 474.247803,319.091125 474.459747,319.491669 
	C485.679077,340.695099 496.880676,361.908112 508.191040,383.062988 
	C510.088226,386.611542 512.398193,386.631592 514.452698,383.062592 
	C517.775085,377.290894 520.753052,371.320953 524.250732,364.800079 
M555.501953,590.276062 
	C552.343323,590.138000 549.179504,590.070618 546.027954,589.837341 
	C543.881836,589.678467 541.709290,588.905090 540.802063,591.974121 
	C539.835632,595.243347 542.542908,595.622375 544.286072,596.426941 
	C554.256409,601.028381 564.363525,605.337219 574.282227,610.044617 
	C577.319397,611.486084 579.578308,611.440857 582.573853,609.817749 
	C591.495605,604.983398 601.212585,608.169373 604.192505,617.451660 
	C605.869934,622.676880 608.754395,625.053772 613.606262,626.200562 
	C615.533264,626.656006 617.434021,627.401367 619.204895,628.295654 
	C621.849487,629.631042 623.533386,629.153687 625.532043,626.774780 
	C632.581055,618.384460 641.676697,613.624329 652.661560,612.581604 
	C654.545593,612.402771 656.404358,611.956909 659.326416,611.453125 
	C646.340759,603.471375 633.908203,596.917725 620.274231,592.850464 
	C619.330872,592.569092 618.315857,592.442139 617.328369,592.407166 
	C597.045837,591.687012 576.762512,590.990601 555.501953,590.276062 
M373.499969,650.687317 
	C402.561279,652.902588 430.451385,645.483032 459.774872,640.370117 
	C456.289734,640.370117 453.961243,640.372925 451.632751,640.369690 
	C406.705292,640.306885 361.777832,640.243164 316.850372,640.180176 
	C309.396454,640.169739 309.594482,640.256958 309.284210,645.906189 
	C308.908875,652.739502 313.721680,650.705627 317.089783,650.719666 
	C335.559479,650.796631 354.029816,650.714539 373.499969,650.687317 
M531.813110,383.192993 
	C552.087524,360.786926 573.531067,339.499359 594.946045,317.997955 
	C585.156982,317.306061 575.855042,317.359131 566.554382,317.270050 
	C564.121887,317.246765 563.070190,318.588623 562.052551,320.470520 
	C551.211853,340.517029 540.303345,360.526886 529.476013,380.580627 
	C528.767639,381.892639 527.515991,383.209747 528.059021,385.041840 
	C529.584045,385.147034 530.519531,384.502930 531.813110,383.192993 
M481.594849,372.913757 
	C485.682648,377.284363 489.770477,381.654938 493.858276,386.025543 
	C494.536713,382.550110 493.084961,380.332214 491.879150,378.060272 
	C484.241516,363.669586 476.636169,349.260559 468.837830,334.957001 
	C465.678467,329.162170 464.294128,321.194336 458.858154,318.168518 
	C453.445038,315.155426 445.846375,317.360626 439.210083,317.375732 
	C435.539764,317.384094 431.744751,316.602448 427.608215,318.194824 
	C445.604767,336.581970 464.464172,353.405579 481.594849,372.913757 
M480.288513,303.898102 
	C481.039581,306.068848 482.961731,305.527557 484.473267,305.531891 
	C500.093231,305.576721 515.715942,305.691864 531.331604,305.422607 
	C535.075806,305.358032 539.096680,305.922699 543.420166,303.906860 
	C533.732788,294.661133 524.399780,285.949890 515.324463,276.977905 
	C512.430115,274.116516 510.444275,274.691132 507.884674,277.169434 
	C498.815063,285.950867 489.642456,294.625946 480.288513,303.898102 
M260.089081,477.305939 
	C259.209595,490.241638 258.224976,503.171265 257.478790,516.114685 
	C256.655701,530.392700 256.036346,544.682617 255.374832,558.969482 
	C255.307983,560.413086 254.809845,562.499084 256.388977,563.058838 
	C259.879395,564.296021 263.706024,564.168518 267.174866,563.218262 
	C269.853333,562.484558 268.774200,559.484070 268.666443,557.500793 
	C267.169373,529.944824 265.629913,502.390747 263.952484,474.845276 
	C263.457184,466.711639 265.064117,464.458221 272.785950,463.630737 
	C276.846619,463.195618 280.888184,462.581787 284.938354,462.048645 
	C280.846283,460.959564 276.776520,460.561707 272.706360,460.168213 
	C264.478394,459.372681 263.179382,458.037781 262.602417,449.857880 
	C262.536255,448.919922 262.762604,447.848724 261.554871,447.036133 
	C261.075226,456.904907 260.602722,466.627777 260.089081,477.305939 
M479.513184,270.909912 
	C472.176331,271.409424 464.749878,269.307404 456.981476,271.283203 
	C459.404907,281.178955 462.750519,290.221466 466.067200,300.281158 
	C476.638916,290.371735 486.383636,281.237488 496.832520,271.443176 
	C490.668701,270.092072 485.541687,271.315002 479.513184,270.909912 
M550.494934,270.950012 
	C543.116516,270.950012 535.738098,270.950012 528.359741,270.950012 
	C537.116272,281.832672 547.084229,290.426331 557.396118,300.005280 
	C560.608154,290.151886 563.555054,281.111786 566.606323,271.751556 
	C561.053772,270.361633 556.240051,271.181580 550.494934,270.950012 
M432.367004,294.833313 
	C429.922333,298.122681 427.477661,301.412048 424.428436,305.514893 
	C434.949127,305.594147 444.454346,305.658203 454.608215,304.874481 
	C451.813385,295.891815 449.499939,287.206177 445.678741,277.879974 
	C440.957397,283.884705 436.877777,289.073303 432.367004,294.833313 
M572.199036,293.564056 
	C571.327515,297.204681 569.204895,300.557922 569.549683,305.247986 
	C578.784241,304.204559 587.925049,306.532135 598.236938,304.518036 
	C591.096741,295.172058 584.625061,286.701141 577.636108,277.553192 
	C575.704590,283.168732 574.048828,287.982788 572.199036,293.564056 
M296.797485,668.671387 
	C297.097748,668.099792 297.658447,667.528992 297.660065,666.956543 
	C297.697601,653.845093 297.692200,640.733398 297.641846,627.621887 
	C297.634674,625.748657 296.887634,624.393005 294.662262,624.790527 
	C294.403656,625.108765 294.023376,625.358215 294.022888,625.608459 
	C293.995728,639.214417 293.988037,652.820496 294.021606,666.426392 
	C294.024872,667.756409 294.131866,669.228577 296.797485,668.671387 
z"/>
<path fill="#000000" opacity="1.000000" stroke="none" 
	d="
M507.613037,215.000458 
	C507.614502,209.677368 507.634308,204.854050 507.613708,200.030914 
	C507.599884,196.786011 508.064697,193.748901 512.197693,193.763901 
	C516.214233,193.778473 517.032104,196.905487 517.078613,200.025208 
	C517.229797,210.168625 517.180298,220.315079 517.202759,230.460358 
	C517.207520,232.622375 517.251160,234.786743 517.168945,236.945923 
	C517.041382,240.295853 515.727539,243.088242 512.017273,243.015182 
	C508.415192,242.944275 507.634247,240.080429 507.640717,236.955368 
	C507.655518,229.803726 507.625854,222.651993 507.613037,215.000458 
z"/>
<path fill="#000000" opacity="1.000000" stroke="none" 
	d="
M587.928467,211.791199 
	C592.999939,214.084381 593.780762,216.072952 591.046875,220.257706 
	C585.953186,228.054459 580.659912,235.721359 575.411804,243.416458 
	C573.540894,246.159653 571.086609,247.938782 567.876465,245.734833 
	C564.895935,243.688492 565.533630,240.874161 567.276428,238.262192 
	C572.630798,230.237473 578.021973,222.237305 583.417358,214.240082 
	C584.391846,212.795685 585.718933,211.854614 587.928467,211.791199 
z"/>
<path fill="#000000" opacity="1.000000" stroke="none" 
	d="
M457.476685,238.974182 
	C458.957733,242.428864 458.285767,244.992783 455.120361,246.321777 
	C452.023651,247.621902 450.178497,245.603653 448.585236,243.247574 
	C443.738739,236.080734 438.850983,228.941818 433.982239,221.790024 
	C433.607788,221.239929 433.234528,220.686981 432.897797,220.113571 
	C431.294373,217.383240 430.869659,214.636795 433.821289,212.631760 
	C436.828064,210.589279 439.210632,212.080688 441.000214,214.691605 
	C446.456909,222.652664 451.858215,230.651703 457.476685,238.974182 
z"/>
<path fill="#000000" opacity="1.000000" stroke="none" 
	d="
M638.820679,269.990112 
	C636.015503,270.747833 633.615234,271.441498 631.181519,271.985504 
	C628.162598,272.660309 625.778870,271.733948 624.962463,268.585083 
	C624.204590,265.662170 625.751526,263.599243 628.477722,262.878235 
	C638.764404,260.157593 649.082947,257.552338 659.424988,255.050110 
	C662.282776,254.358673 664.404846,255.820648 665.093262,258.616913 
	C665.816772,261.555725 664.170776,263.503967 661.441772,264.231476 
	C654.056213,266.200378 646.624268,267.995544 638.820679,269.990112 
z"/>
<path fill="#000000" opacity="1.000000" stroke="none" 
	d="
M670.302612,662.031982 
	C664.668030,668.860596 658.646484,670.947754 651.685852,668.760254 
	C645.436768,666.796387 641.149780,661.339172 640.696472,654.771057 
	C640.176392,647.236633 643.576233,641.069641 649.934326,638.014282 
	C655.721802,635.233215 663.447327,636.540649 667.952271,641.063599 
	C673.210022,646.342407 674.148560,654.007751 670.302612,662.031982 
M660.197937,650.555054 
	C658.503723,648.492493 656.566406,647.486084 654.284546,649.609131 
	C652.747620,651.039124 651.775757,652.847473 652.912170,654.960144 
	C653.940186,656.871338 655.578064,658.073425 657.841736,657.313049 
	C660.852539,656.301697 661.145386,653.918701 660.197937,650.555054 
z"/>
</svg>